<svg width="150" height="150" viewBox="0 0 150 150" fill="none" xmlns="http://www.w3.org/2000/svg">
<g clip-path="url(#clip0_9864_23548)">
<path d="M144.532 40.4247C145.84 35.0495 142.536 29.633 137.158 28.3373L41.4379 5.27605C36.0778 3.98467 30.6837 7.2753 29.3795 12.6323L6.21897 107.758C4.91025 113.134 8.21455 118.55 13.5929 119.846L109.313 142.907C114.673 144.198 120.067 140.908 121.371 135.551L144.532 40.4247Z" fill="#0A6375"/>
<path d="M119.629 9.55424C118.108 4.26863 112.604 1.20381 107.309 2.69442L11.5685 29.65C6.23049 31.1529 3.13488 36.7125 4.66871 42.0417L31.277 134.49C32.7983 139.775 38.3027 142.84 43.5971 141.35L139.338 114.392C144.676 112.889 147.771 107.33 146.238 102.001L119.629 9.55424Z" fill="#9FE870"/>
<path d="M54.4593 26.2877L54.4588 26.2885L35.3953 56.8404L35.3952 56.8406C32.7382 61.0937 31.9825 66.2484 33.2799 71.0819L42.2883 104.617L42.2884 104.617C44.9036 114.37 54.991 120.196 64.8226 117.573L64.8232 117.573L108.01 106.116L108.01 106.116C117.841 103.516 123.673 93.4813 121.061 83.7041L54.4593 26.2877ZM54.4593 26.2877C57.9804 20.6193 65.324 18.6832 71.2406 21.8268C71.2409 21.827 71.2412 21.8271 71.2415 21.8273L103.064 38.871L103.065 38.8714C107.492 41.2335 110.755 45.3382 112.05 50.1709L112.05 50.1713L121.06 83.7034L54.4593 26.2877Z" fill="#0A6375" stroke="#0A6375"/>
<path d="M63.3988 26.1338C65.1293 25.6696 66.9731 25.8902 68.5696 26.7291L100.394 43.7713C103.455 45.4261 105.698 48.2531 106.606 51.6087L115.617 85.1645C117.438 91.963 113.376 98.9178 106.562 100.75L63.3549 112.184C56.5206 113.995 49.5292 109.954 47.6878 103.179L38.7002 69.6438C37.8107 66.2882 38.3444 62.7349 40.165 59.777L59.2054 29.2228C60.1596 27.7013 61.6452 26.5958 63.3988 26.1338ZM61.8231 20.2615C58.5839 21.1211 55.809 23.1736 54.0346 26.0235L34.9711 56.5754C32.2402 60.9468 31.4639 66.2445 32.797 71.2112L41.8054 104.746C44.4925 114.767 54.8548 120.75 64.9514 118.056L108.138 106.599C118.235 103.928 124.228 93.6201 121.543 83.574L112.533 50.0412C111.202 45.0745 107.849 40.857 103.3 38.43L71.4761 21.3854C68.5026 19.7973 65.0646 19.3997 61.8231 20.2615Z" fill="#ECEDE5"/>
<path opacity="0.2" d="M91.2589 55.1182L46.3809 67.0305L57.8014 109.603L102.679 97.6927L91.2589 55.1182Z" fill="#2B2B37"/>
<path d="M94.0343 50.6362L49.1562 62.5462L60.5744 105.121L105.452 93.2107L94.0343 50.6362Z" fill="#9FE870"/>
<path d="M79.1986 85.054L32.5508 70.3286L41.7833 104.723C44.468 114.746 54.8304 120.729 64.9293 118.035L108.093 106.578C118.19 103.907 124.183 93.597 121.496 83.5739L112.266 49.1792L79.1986 85.054Z" fill="#ECEDE5"/>
<path d="M76.4254 74.7231L44.0469 109.89C48.4644 116.866 56.9183 120.177 64.931 118.058L108.095 106.578C116.105 104.459 121.786 97.394 122.119 89.159L76.4254 74.7231Z" fill="#ECEDE5"/>
<path d="M74.9843 98.2329L89.4522 94.3924C91.4947 93.8408 93.581 95.0543 94.1355 97.0861C94.69 99.1155 93.4701 101.191 91.4277 101.743L76.9597 105.585C74.9172 106.137 72.8309 104.921 72.2764 102.892C71.7219 100.837 72.9418 98.7639 74.9843 98.2329Z" fill="#ECEDE5"/>
<path d="M77.7363 101.411L88.6555 98.52" stroke="#0A6375" stroke-linecap="round" stroke-linejoin="round"/>
<path d="M44.0254 110.044L69.4564 82.0962" stroke="#0A6375" stroke-linecap="round" stroke-linejoin="round"/>
<path d="M86.0801 77.7686L121.943 89.0718" stroke="#0A6375" stroke-linecap="round" stroke-linejoin="round"/>
<path d="M39.1452 71.7424L33.041 69.9106" stroke="#0A6375" stroke-linecap="round" stroke-linejoin="round"/>
<path d="M107.318 53.8612L111.845 49.2461L107.318 53.8612Z" fill="#ECEDE5"/>
<path d="M107.318 53.8612L111.845 49.2461" stroke="#0A6375" stroke-linecap="round" stroke-linejoin="round"/>
</g>
<defs>
<clipPath id="clip0_9864_23548">
<rect width="150" height="150" fill="white"/>
</clipPath>
</defs>
</svg>
