<svg width="150" height="150" viewBox="0 0 150 150" fill="none" xmlns="http://www.w3.org/2000/svg">
<g clip-path="url(#clip0_9864_23509)">
<path d="M123.567 113.878C132.9 115.451 138.993 104.381 132.671 97.3374L65.9531 23.001C61.7608 18.33 54.352 18.6307 50.552 23.6261L8.01493 79.5448C3.46209 85.5299 6.89626 94.21 14.3116 95.46L123.567 113.878Z" fill="#0A6375"/>
<path d="M134.635 43.1156C135.148 37.6147 131.104 32.7396 125.603 32.2288L41.093 24.3816C35.5958 23.8712 30.7249 27.9122 30.2117 33.4092L22.4574 116.461C21.9438 121.962 25.9883 126.837 31.4894 127.348L115.999 135.197C121.496 135.707 126.367 131.666 126.88 126.169L134.635 43.1156Z" fill="#9FE870"/>
<path d="M74.752 103.25L62.2721 94.5309C61.693 94.1236 60.8762 94.2517 60.4468 94.8521C60.2953 95.0663 60.2109 95.3455 60.2109 95.6017V112.824C60.2109 113.553 60.79 114.132 61.5205 114.132C61.7774 114.132 62.0362 114.046 62.251 113.897L74.7309 105.392C75.333 104.984 75.4825 104.17 75.0741 103.592C74.9898 103.464 74.8824 103.334 74.752 103.25Z" fill="#ECEDE5"/>
<path opacity="0.2" d="M75.0741 103.592C75.4825 104.17 75.333 104.984 74.7309 105.392L72.7541 106.742L60.2109 109.097V95.6017C60.2109 95.3455 60.2953 95.0663 60.4468 94.8521C60.8762 94.2517 61.693 94.1236 62.2721 94.5309L74.752 103.25C74.8824 103.334 74.9898 103.464 75.0741 103.592Z" fill="#383838"/>
<path d="M97.8225 105.392H58.3407C51.2523 105.392 45.5176 99.6726 45.5176 92.6016V66.5739C45.5176 59.5048 51.2523 53.7856 58.3407 53.7856H97.8436C104.932 53.7856 110.667 59.5048 110.667 66.5739V92.6016C110.646 99.6726 104.911 105.392 97.8225 105.392Z" fill="#ECEDE5"/>
<path d="M90.6887 83.605C92.907 83.605 94.7055 81.8115 94.7055 79.5991C94.7055 77.3868 92.907 75.5933 90.6887 75.5933C88.4703 75.5933 86.6719 77.3868 86.6719 79.5991C86.6719 81.8115 88.4703 83.605 90.6887 83.605Z" fill="#0A6375"/>
<path d="M78.0813 83.605C80.2996 83.605 82.0981 81.8115 82.0981 79.5991C82.0981 77.3868 80.2996 75.5933 78.0813 75.5933C75.8629 75.5933 74.0645 77.3868 74.0645 79.5991C74.0645 81.8115 75.8629 83.605 78.0813 83.605Z" fill="#0A6375"/>
<path d="M65.4934 83.605C67.7117 83.605 69.5102 81.8115 69.5102 79.5991C69.5102 77.3868 67.7117 75.5933 65.4934 75.5933C63.275 75.5933 61.4766 77.3868 61.4766 79.5991C61.4766 81.8115 63.275 83.605 65.4934 83.605Z" fill="#0A6375"/>
</g>
<defs>
<clipPath id="clip0_9864_23509">
<rect width="150" height="150" fill="white"/>
</clipPath>
</defs>
</svg>
