<svg width="150" height="150" viewBox="0 0 150 150" fill="none" xmlns="http://www.w3.org/2000/svg">
<path d="M145.462 40.6889C146.759 35.3235 143.464 29.9215 138.099 28.6203L44.9055 6.01429C39.5356 4.71171 34.1271 8.0112 32.8283 13.382L10.2511 106.746C8.95366 112.111 12.2491 117.513 17.6136 118.815L110.807 141.421C116.177 142.723 121.586 139.424 122.884 134.053L145.462 40.6889Z" fill="#0A6375"/>
<path d="M120.064 9.95131C118.553 4.63592 113.018 1.55355 107.704 3.06861L11.7029 30.4382C6.39466 31.9515 3.3165 37.4796 4.82562 42.789L31.5652 136.865C33.0761 142.18 38.6118 145.263 43.9261 143.747L139.927 116.376C145.235 114.863 148.313 109.335 146.804 104.025L120.064 9.95131Z" fill="#9FE870"/>
<path d="M79.9527 112.565C101.623 110.821 117.777 91.8122 116.035 70.1085C114.293 48.4049 95.3146 32.225 73.6448 33.9696C51.9749 35.7142 35.8203 54.7227 37.5622 76.4263C39.3041 98.13 58.2829 114.31 79.9527 112.565Z" fill="#ECEDE5"/>
<path d="M74.3481 51.9131L74.2846 51.9173C70.1181 52.3598 62.4298 55.7706 63.2161 65.5628C63.3641 67.4133 64.9728 68.7852 66.8204 68.6349C68.6658 68.4867 70.0357 66.8755 69.8877 65.025C69.4607 59.6875 73.6293 58.7602 74.9463 58.5908C79.208 58.269 82.0343 60.346 82.3345 64.0659C82.5522 66.7971 81.4995 67.8769 78.6732 70.0301C76.1449 71.9462 72.325 74.8765 72.9867 80.7454L73.0649 81.7109C73.2129 83.5613 74.8216 84.9333 76.6692 84.7851C78.4935 84.6369 79.8865 83.0447 79.7808 81.1922L79.6857 80.015C79.4659 78.0671 80.248 77.2838 82.7551 75.3698L82.7953 75.3444C85.4821 73.2886 89.5366 70.1487 89.006 63.5282C88.4057 56.048 82.3831 51.2652 74.3481 51.9131Z" fill="#0A6375"/>
<path d="M77.1666 88.3825C75.133 88.5456 73.6089 90.341 73.7717 92.3778C73.9345 94.4166 75.7249 95.9431 77.7607 95.7801C79.8154 95.5938 81.3416 93.8196 81.1577 91.7828C80.9928 89.746 79.2024 88.2195 77.1666 88.3825Z" fill="#0A6375"/>
</svg>
